# Blender v2.80 (sub 75) OBJ File: ''
# www.blender.org
mtllib parking.mtl
o ParkingLot
v -9.000000 -0.044443 -12.625592
v 9.000000 -0.044447 12.625592
v 9.000000 -0.044443 -12.625592
v -9.000000 -0.044447 12.625592
v 9.000000 -0.044443 -12.625592
v 9.000000 0.055554 12.625592
v 9.000000 0.055558 -12.625592
v 9.000000 -0.044447 12.625592
v -9.000000 0.055558 -12.625592
v -9.000000 -0.044447 12.625592
v -9.000000 -0.044443 -12.625592
v -9.000000 0.055554 12.625592
v 9.000000 0.055558 -12.625592
v 9.100000 0.055554 12.625592
v 9.100000 0.055558 -12.625592
v 9.000000 0.055554 12.625592
v -9.100000 0.055558 -12.625592
v -9.000000 0.055554 12.625592
v -9.000000 0.055558 -12.625592
v -9.100000 0.055554 12.625592
v 9.100000 0.055558 -12.625592
v 9.100000 -0.044447 12.625592
v 9.100000 -0.044443 -12.625592
v 9.100000 0.055554 12.625592
v -9.100000 -0.044443 -12.625592
v -9.100000 0.055554 12.625592
v -9.100000 0.055558 -12.625592
v -9.100000 -0.044447 12.625592
v 9.100000 -0.044443 -12.625592
v 19.099997 -0.044447 12.625592
v 19.099997 -0.044443 -12.625592
v 9.100000 -0.044447 12.625592
v -19.099998 -0.044443 -12.625592
v -9.100000 -0.044447 12.625592
v -9.100000 -0.044443 -12.625592
v -19.099998 -0.044447 12.625592
vt 1.000000 0.000000
vt 0.000000 2.104265
vt 0.000000 0.000000
vt 1.000000 2.104265
vt 0.000000 0.000000
vt 25.251181 0.100000
vt 0.000000 0.100000
vt 25.251181 0.000000
vt 0.000000 0.100000
vt 25.251181 0.000000
vt 0.000000 0.000000
vt 25.251181 0.100000
vt 0.000000 0.000000
vt 25.251181 0.100000
vt 0.000000 0.100000
vt 25.251181 0.000000
vt 0.000000 0.100000
vt 25.251181 0.000000
vt 0.000000 0.000000
vt 25.251181 0.100000
vt 0.000000 0.000000
vt 25.251181 0.100000
vt 0.000000 0.100000
vt 25.251181 0.000000
vt 0.000000 0.100000
vt 25.251181 0.000000
vt 0.000000 0.000000
vt 25.251181 0.100000
vt 0.000000 0.000000
vt 25.251181 50.000000
vt 0.000000 50.000000
vt 25.251181 0.000000
vt 0.000000 50.000000
vt 25.251181 0.000000
vt 0.000000 0.000000
vt 25.251181 50.000000
vn 0.0000 1.0000 0.0000
vn -1.0000 0.0000 0.0000
vn 1.0000 0.0000 0.0000
usemtl ParkingMat
s 1
f 1/1/1 2/2/1 3/3/1
f 1/1/1 4/4/1 2/2/1
usemtl ConcreteMat
f 5/5/2 6/6/2 7/7/2
f 5/5/2 8/8/2 6/6/2
f 9/9/3 10/10/3 11/11/3
f 9/9/3 12/12/3 10/10/3
f 13/13/1 14/14/1 15/15/1
f 13/13/1 16/16/1 14/14/1
f 17/17/1 18/18/1 19/19/1
f 17/17/1 20/20/1 18/18/1
f 21/21/3 22/22/3 23/23/3
f 21/21/3 24/24/3 22/22/3
f 25/25/2 26/26/2 27/27/2
f 25/25/2 28/28/2 26/26/2
usemtl GrassMat
f 29/29/1 30/30/1 31/31/1
f 29/29/1 32/32/1 30/30/1
f 33/33/1 34/34/1 35/35/1
f 33/33/1 36/36/1 34/34/1
